<svg width="29" height="26" viewBox="0 0 29 26" fill="none" xmlns="http://www.w3.org/2000/svg">
<path d="M27.8406 17.9344H9.23122L10.1656 16.0312L25.6906 16.0031C26.2156 16.0031 26.6656 15.6281 26.7593 15.1094L28.9093 3.075C28.9656 2.75937 28.8812 2.43438 28.675 2.1875C28.573 2.066 28.4459 1.96813 28.3023 1.90068C28.1588 1.83323 28.0023 1.79781 27.8437 1.79688L8.09372 1.73125L7.92497 0.9375C7.81872 0.43125 7.36247 0.0625 6.84372 0.0625H2.0156C1.72303 0.0625 1.44245 0.178722 1.23557 0.385598C1.0287 0.592474 0.912476 0.873058 0.912476 1.16563C0.912476 1.45819 1.0287 1.73878 1.23557 1.94565C1.44245 2.15253 1.72303 2.26875 2.0156 2.26875H5.94997L6.68747 5.775L8.5031 14.5656L6.1656 18.3813C6.04421 18.5451 5.9711 18.7396 5.95453 18.9429C5.93796 19.1461 5.9786 19.3499 6.07185 19.5312C6.25935 19.9031 6.63747 20.1375 7.05622 20.1375H9.01872C8.60034 20.6932 8.37436 21.37 8.37497 22.0656C8.37497 23.8344 9.81247 25.2719 11.5812 25.2719C13.35 25.2719 14.7875 23.8344 14.7875 22.0656C14.7875 21.3687 14.5562 20.6906 14.1437 20.1375H19.1781C18.7597 20.6932 18.5337 21.37 18.5343 22.0656C18.5343 23.8344 19.9718 25.2719 21.7406 25.2719C23.5093 25.2719 24.9468 23.8344 24.9468 22.0656C24.9468 21.3687 24.7156 20.6906 24.3031 20.1375H27.8437C28.45 20.1375 28.9468 19.6437 28.9468 19.0344C28.945 18.7421 28.8277 18.4624 28.6204 18.2564C28.4132 18.0503 28.1329 17.9345 27.8406 17.9344ZM8.5531 3.90625L26.5468 3.96562L24.7843 13.8344L10.65 13.8594L8.5531 3.90625ZM11.5812 23.0531C11.0375 23.0531 10.5937 22.6094 10.5937 22.0656C10.5937 21.5219 11.0375 21.0781 11.5812 21.0781C12.125 21.0781 12.5687 21.5219 12.5687 22.0656C12.5687 22.3275 12.4647 22.5787 12.2795 22.7639C12.0943 22.9491 11.8431 23.0531 11.5812 23.0531ZM21.7406 23.0531C21.1968 23.0531 20.7531 22.6094 20.7531 22.0656C20.7531 21.5219 21.1968 21.0781 21.7406 21.0781C22.2843 21.0781 22.7281 21.5219 22.7281 22.0656C22.7281 22.3275 22.6241 22.5787 22.4389 22.7639C22.2537 22.9491 22.0025 23.0531 21.7406 23.0531Z" fill="#3DCCC7"/>
</svg>
