<svg width="25" height="25" viewBox="0 0 25 25" fill="none" xmlns="http://www.w3.org/2000/svg">
<g clip-path="url(#clip0_36_555)">
<path d="M0.78125 1.5625C0.57405 1.5625 0.375336 1.64481 0.228823 1.79132C0.08231 1.93784 0 2.13655 0 2.34375C0 2.55095 0.08231 2.74966 0.228823 2.89618C0.375336 3.04269 0.57405 3.125 0.78125 3.125H2.51562L3.14219 5.63594L5.48281 18.1125C5.51633 18.2915 5.61134 18.4532 5.75142 18.5696C5.89151 18.686 6.06786 18.7498 6.25 18.75H7.8125C6.9837 18.75 6.18884 19.0792 5.60279 19.6653C5.01674 20.2513 4.6875 21.0462 4.6875 21.875C4.6875 22.7038 5.01674 23.4987 5.60279 24.0847C6.18884 24.6708 6.9837 25 7.8125 25C8.6413 25 9.43616 24.6708 10.0222 24.0847C10.6083 23.4987 10.9375 22.7038 10.9375 21.875C10.9375 21.0462 10.6083 20.2513 10.0222 19.6653C9.43616 19.0792 8.6413 18.75 7.8125 18.75H18.75C17.9212 18.75 17.1263 19.0792 16.5403 19.6653C15.9542 20.2513 15.625 21.0462 15.625 21.875C15.625 22.7038 15.9542 23.4987 16.5403 24.0847C17.1263 24.6708 17.9212 25 18.75 25C19.5788 25 20.3737 24.6708 20.9597 24.0847C21.5458 23.4987 21.875 22.7038 21.875 21.875C21.875 21.0462 21.5458 20.2513 20.9597 19.6653C20.3737 19.0792 19.5788 18.75 18.75 18.75H20.3125C20.4946 18.7498 20.671 18.686 20.8111 18.5696C20.9512 18.4532 21.0462 18.2915 21.0797 18.1125L23.4234 5.6125C23.4445 5.49975 23.4406 5.38373 23.4118 5.27268C23.383 5.16164 23.3301 5.0583 23.2569 4.97001C23.1836 4.88171 23.0919 4.81062 22.9881 4.7618C22.8842 4.71297 22.771 4.68761 22.6562 4.6875H4.51562L3.88281 2.15469C3.84064 1.9856 3.74314 1.83547 3.60583 1.72816C3.46852 1.62086 3.29927 1.56255 3.125 1.5625H0.78125ZM9.375 21.875C9.375 22.2894 9.21038 22.6868 8.91735 22.9799C8.62433 23.2729 8.2269 23.4375 7.8125 23.4375C7.3981 23.4375 7.00067 23.2729 6.70765 22.9799C6.41462 22.6868 6.25 22.2894 6.25 21.875C6.25 21.4606 6.41462 21.0632 6.70765 20.7701C7.00067 20.4771 7.3981 20.3125 7.8125 20.3125C8.2269 20.3125 8.62433 20.4771 8.91735 20.7701C9.21038 21.0632 9.375 21.4606 9.375 21.875ZM20.3125 21.875C20.3125 22.2894 20.1479 22.6868 19.8549 22.9799C19.5618 23.2729 19.1644 23.4375 18.75 23.4375C18.3356 23.4375 17.9382 23.2729 17.6451 22.9799C17.3521 22.6868 17.1875 22.2894 17.1875 21.875C17.1875 21.4606 17.3521 21.0632 17.6451 20.7701C17.9382 20.4771 18.3356 20.3125 18.75 20.3125C19.1644 20.3125 19.5618 20.4771 19.8549 20.7701C20.1479 21.0632 20.3125 21.4606 20.3125 21.875ZM17.7406 9.92813L13.0531 14.6156C12.9806 14.6884 12.8943 14.7461 12.7994 14.7855C12.7045 14.8249 12.6028 14.8451 12.5 14.8451C12.3972 14.8451 12.2955 14.8249 12.2006 14.7855C12.1057 14.7461 12.0194 14.6884 11.9469 14.6156L9.60312 12.2719C9.53049 12.1992 9.47287 12.113 9.43356 12.0181C9.39425 11.9232 9.37401 11.8215 9.37401 11.7188C9.37401 11.616 9.39425 11.5143 9.43356 11.4194C9.47287 11.3245 9.53049 11.2383 9.60312 11.1656C9.67576 11.093 9.762 11.0354 9.8569 10.9961C9.95181 10.9567 10.0535 10.9365 10.1562 10.9365C10.259 10.9365 10.3607 10.9567 10.4556 10.9961C10.5505 11.0354 10.6367 11.093 10.7094 11.1656L12.5 12.9578L16.6344 8.82187C16.707 8.74924 16.7932 8.69162 16.8882 8.65231C16.9831 8.613 17.0848 8.59276 17.1875 8.59276C17.2902 8.59276 17.3919 8.613 17.4868 8.65231C17.5818 8.69162 17.668 8.74924 17.7406 8.82187C17.8133 8.89451 17.8709 8.98075 17.9102 9.07565C17.9495 9.17056 17.9697 9.27227 17.9697 9.375C17.9697 9.47773 17.9495 9.57944 17.9102 9.67435C17.8709 9.76925 17.8133 9.85549 17.7406 9.92813Z" fill="white"/>
</g>
<defs>
<clipPath id="clip0_36_555">
<rect width="25" height="25" fill="white"/>
</clipPath>
</defs>
</svg>
